<svg width="899" height="404" viewBox="0 0 899 404" fill="none" xmlns="http://www.w3.org/2000/svg">
<g clip-path="url(#clip0_2_2)">
<path d="M126.179 193.465V184.861L132.051 183.905C133.78 183.632 134.918 183.086 135.464 182.267C136.011 181.356 136.284 179.581 136.284 176.941V113.029C136.284 110.662 135.965 109.069 135.328 108.249C134.782 107.339 133.598 106.747 131.777 106.474L126.179 105.791V97.1876H169.057V105.791L163.186 106.61C161.547 106.884 160.454 107.521 159.908 108.522C159.362 109.433 159.089 111.117 159.089 113.575V138.566H194.73V113.029C194.73 110.753 194.457 109.205 193.911 108.386C193.365 107.475 192.136 106.884 190.224 106.61L184.762 105.791V97.1876H227.64V105.791L221.768 106.474C220.13 106.747 218.992 107.339 218.355 108.249C217.808 109.16 217.535 110.889 217.535 113.439V177.487C217.535 179.854 217.808 181.447 218.355 182.267C218.992 183.086 220.221 183.632 222.042 183.905L227.64 184.861V193.465H184.762V184.861L190.497 183.905C192.227 183.632 193.365 183.086 193.911 182.267C194.457 181.356 194.73 179.581 194.73 176.941V150.038H159.089V177.487C159.089 179.945 159.362 181.584 159.908 182.403C160.545 183.131 161.729 183.632 163.459 183.905L169.057 184.861V193.465H126.179ZM259.986 195.377C253.431 195.377 248.333 193.692 244.692 190.324C241.05 186.955 239.23 182.449 239.23 176.804C239.23 171.433 240.55 167.245 243.19 164.24C245.921 161.145 250.2 158.869 256.026 157.412C261.853 155.955 269.409 155.045 278.695 154.681V144.302C278.695 140.842 278.33 138.066 277.602 135.972C276.874 133.787 275.645 132.193 273.915 131.192C272.276 130.099 270 129.553 267.087 129.553C264.902 129.553 262.717 129.872 260.532 130.509C258.348 131.146 256.663 131.966 255.48 132.967C256.481 134.515 257.301 135.881 257.938 137.064C258.575 138.248 259.03 139.249 259.303 140.068C259.577 140.797 259.713 141.48 259.713 142.117C259.713 144.12 258.848 145.804 257.119 147.17C255.389 148.444 252.885 149.082 249.608 149.082C246.513 149.082 244.146 148.353 242.507 146.897C240.959 145.349 240.185 143.346 240.185 140.888C240.185 137.337 241.46 134.105 244.009 131.192C246.649 128.279 250.245 125.957 254.797 124.227C259.44 122.406 264.766 121.496 270.774 121.496C277.511 121.496 283.019 122.452 287.298 124.364C291.667 126.185 294.945 129.052 297.13 132.967C299.315 136.791 300.407 141.707 300.407 147.716V177.214C300.407 179.308 300.817 180.855 301.636 181.857C302.455 182.858 303.776 183.359 305.596 183.359C306.507 183.359 307.417 183.268 308.327 183.086C309.238 182.904 310.148 182.631 311.059 182.267L312.697 189.095C310.785 190.825 308.327 192.281 305.323 193.465C302.41 194.739 299.406 195.377 296.31 195.377C291.758 195.377 288.208 194.33 285.659 192.236C283.11 190.142 281.471 187.319 280.743 183.769C279.559 186.045 278.012 188.048 276.1 189.778C274.188 191.507 271.912 192.873 269.272 193.874C266.632 194.876 263.537 195.377 259.986 195.377ZM268.589 184.178C270.592 184.178 272.322 183.723 273.778 182.813C275.326 181.902 276.51 180.628 277.329 178.989C278.239 177.35 278.695 175.484 278.695 173.39V162.601C274.507 162.601 271.047 163.011 268.316 163.831C265.676 164.65 263.719 165.925 262.444 167.654C261.261 169.384 260.669 171.66 260.669 174.482C260.669 177.487 261.306 179.854 262.581 181.584C263.946 183.314 265.949 184.178 268.589 184.178ZM316.856 193.465V185.134L322.318 184.178C323.775 183.905 324.685 183.359 325.049 182.54C325.505 181.72 325.732 180.082 325.732 177.623V141.844C325.732 138.839 325.459 136.836 324.913 135.835C324.367 134.743 323.092 134.014 321.089 133.65L315.764 132.967L316.583 124.091L342.938 122.452L344.85 123.544L345.669 136.245H346.079C347.627 133.149 349.539 130.509 351.815 128.324C354.09 126.139 356.685 124.455 359.598 123.271C362.511 122.088 365.698 121.496 369.157 121.496C374.711 121.496 379.217 122.77 382.676 125.32C386.136 127.778 388.503 131.237 389.777 135.698C391.871 131.328 394.921 127.869 398.927 125.32C402.932 122.77 407.53 121.496 412.719 121.496C417.635 121.496 421.686 122.497 424.872 124.5C428.15 126.412 430.562 129.143 432.11 132.694C433.749 136.245 434.568 140.387 434.568 145.121V178.716C434.568 180.719 434.841 182.084 435.387 182.813C435.934 183.541 437.072 184.042 438.801 184.315L443.717 185.134V193.465H406.028V185.271L409.168 184.588C410.716 184.315 411.717 183.769 412.173 182.949C412.628 182.13 412.855 180.719 412.855 178.716V149.082C412.855 145.531 412.537 142.754 411.9 140.751C411.353 138.657 410.397 137.201 409.032 136.381C407.757 135.471 406.028 135.016 403.843 135.016C401.476 135.016 399.336 135.607 397.425 136.791C395.513 137.975 393.965 139.704 392.782 141.98C391.598 144.256 391.006 147.079 391.006 150.447V178.443C391.006 180.355 391.188 181.766 391.553 182.676C391.917 183.587 392.827 184.178 394.284 184.452L398.107 185.271V193.465H362.466V185.271L365.607 184.588C367.154 184.315 368.156 183.769 368.611 182.949C369.066 182.13 369.294 180.719 369.294 178.716V149.082C369.294 145.44 368.975 142.618 368.338 140.615C367.792 138.521 366.836 137.064 365.47 136.245C364.196 135.425 362.466 135.016 360.281 135.016C357.914 135.016 355.729 135.607 353.726 136.791C351.815 137.975 350.267 139.704 349.083 141.98C347.991 144.256 347.445 147.079 347.445 150.447V178.443C347.445 180.355 347.627 181.766 347.991 182.676C348.355 183.587 349.265 184.178 350.722 184.452L354.546 185.271V193.465H316.856ZM451.654 193.465V184.998L457.799 184.042C459.437 183.769 460.484 183.223 460.939 182.403C461.395 181.493 461.622 179.808 461.622 177.35V142.39C461.622 139.295 461.349 137.201 460.803 136.108C460.257 134.925 458.937 134.196 456.843 133.923L451.517 133.104L452.336 124.091L481.423 122.588L483.335 123.681V177.623C483.335 179.626 483.517 181.129 483.881 182.13C484.336 183.04 485.429 183.678 487.158 184.042L493.303 185.134V193.465H451.654ZM470.635 110.98C466.538 110.98 463.261 109.979 460.803 107.976C458.436 105.882 457.252 103.06 457.252 99.5092C457.252 95.9585 458.39 93.1817 460.666 91.1788C463.033 89.0848 466.356 88.0378 470.635 88.0378C474.914 88.0378 478.191 89.0393 480.467 91.0422C482.743 93.0452 483.881 95.8675 483.881 99.5092C483.881 103.06 482.652 105.882 480.194 107.976C477.827 109.979 474.641 110.98 470.635 110.98ZM500.719 193.465V184.998L506.728 184.042C508.366 183.769 509.413 183.223 509.868 182.403C510.415 181.584 510.688 179.899 510.688 177.35V107.976C510.688 104.881 510.369 102.832 509.732 101.831C509.095 100.738 507.638 100.055 505.362 99.7823L500.446 99.0995L501.265 89.9497L530.488 88.7207L532.4 90.2229V177.623C532.4 179.808 532.628 181.356 533.083 182.267C533.538 183.177 534.676 183.814 536.497 184.178L542.369 185.134V193.465H500.719ZM578.108 195.377C573.465 195.377 569.551 194.648 566.366 193.192C563.271 191.644 560.904 189.322 559.265 186.227C557.626 183.04 556.807 179.08 556.807 174.346V133.923H546.975V125.047C551.072 124.5 554.303 123.362 556.67 121.632C559.037 119.812 560.813 117.217 561.996 113.848C563.18 110.48 564.045 106.246 564.591 101.148L576.196 99.6457L578.518 100.738V123.408H597.772V133.923H578.518V170.795C578.518 174.164 579.11 176.759 580.293 178.579C581.477 180.4 583.57 181.311 586.575 181.311C588.578 181.311 590.535 180.992 592.447 180.355C594.358 179.626 596.225 178.625 598.046 177.35L602.142 184.588C599.229 187.775 595.77 190.369 591.764 192.372C587.849 194.375 583.297 195.377 578.108 195.377ZM643.223 195.377C635.485 195.377 628.885 194.011 623.422 191.28C617.96 188.457 613.772 184.406 610.859 179.126C607.946 173.845 606.489 167.381 606.489 159.734C606.489 151.267 608.082 144.211 611.269 138.566C614.546 132.922 619.144 128.688 625.061 125.866C630.978 122.953 637.852 121.496 645.681 121.496C652.873 121.496 659.155 122.816 664.526 125.456C669.897 128.005 674.085 131.92 677.089 137.201C680.184 142.39 681.732 148.945 681.732 156.866C681.732 164.969 680.184 171.888 677.089 177.623C673.994 183.359 669.579 187.775 663.843 190.87C658.108 193.874 651.234 195.377 643.223 195.377ZM645.135 184.861C648.321 184.861 650.916 183.996 652.919 182.267C654.921 180.446 656.378 177.669 657.288 173.936C658.199 170.203 658.654 165.424 658.654 159.597C658.654 154.59 658.29 150.311 657.562 146.76C656.924 143.209 655.923 140.342 654.557 138.157C653.283 135.972 651.69 134.378 649.778 133.377C647.957 132.375 645.863 131.875 643.496 131.875C640.583 131.875 638.034 132.649 635.849 134.196C633.755 135.744 632.162 138.248 631.07 141.707C629.977 145.076 629.431 149.673 629.431 155.5C629.431 162.146 629.977 167.654 631.07 172.024C632.253 176.394 634.028 179.626 636.395 181.72C638.762 183.814 641.675 184.861 645.135 184.861ZM691.189 193.465V185.134L696.651 184.178C698.108 183.905 699.018 183.359 699.382 182.54C699.837 181.72 700.065 180.082 700.065 177.623V141.844C700.065 138.839 699.792 136.836 699.246 135.835C698.699 134.743 697.425 134.014 695.422 133.65L690.096 132.967L690.916 124.091L717.271 122.452L719.183 123.544L720.002 136.245H720.412C722.597 131.602 725.738 128.005 729.834 125.456C734.022 122.816 738.893 121.496 744.446 121.496C749.726 121.496 754.05 122.497 757.419 124.5C760.787 126.412 763.291 129.143 764.929 132.694C766.568 136.154 767.387 140.296 767.387 145.121V178.716C767.387 180.719 767.615 182.084 768.07 182.813C768.617 183.541 769.755 184.042 771.484 184.315L776.537 185.134V193.465H737.755V185.271L741.988 184.588C743.536 184.224 744.537 183.678 744.992 182.949C745.447 182.13 745.675 180.719 745.675 178.716V149.628C745.675 145.986 745.356 143.118 744.719 141.024C744.082 138.93 742.989 137.428 741.442 136.518C739.985 135.516 738.028 135.016 735.57 135.016C732.93 135.016 730.563 135.607 728.469 136.791C726.375 137.975 724.736 139.795 723.553 142.254C722.369 144.712 721.777 147.762 721.777 151.403V178.443C721.777 180.446 721.96 181.857 722.324 182.676C722.779 183.496 723.689 184.042 725.055 184.315L729.971 185.271V193.465H691.189Z" fill="currentColor"/>
<path d="M119.532 241.831L785.214 248.422" stroke="currentColor"/>
<path d="M163.917 313.858V278.683H185.146V282.461H168.177V294.346H184.046V298.125H168.177V310.079H185.42V313.858H163.917ZM195.296 287.476L201.616 298.262L207.936 287.476H212.608L204.089 300.667L212.608 313.858H207.936L201.616 303.621L195.296 313.858H190.624L199.006 300.667L190.624 287.476H195.296ZM229.864 287.476V290.911H216.193V287.476H229.864ZM220.178 281.156H224.231V306.301C224.231 307.446 224.397 308.304 224.729 308.877C225.072 309.438 225.507 309.816 226.034 310.011C226.572 310.194 227.139 310.286 227.734 310.286C228.181 310.286 228.547 310.262 228.834 310.217C229.12 310.159 229.349 310.114 229.52 310.079L230.345 313.721C230.07 313.824 229.687 313.927 229.194 314.03C228.702 314.144 228.078 314.202 227.322 314.202C226.177 314.202 225.055 313.955 223.956 313.463C222.868 312.97 221.964 312.22 221.242 311.213C220.533 310.205 220.178 308.934 220.178 307.4V281.156ZM246.738 314.408C244.196 314.408 242.003 313.847 240.16 312.724C238.328 311.591 236.914 310.011 235.918 307.984C234.933 305.946 234.441 303.575 234.441 300.873C234.441 298.171 234.933 295.789 235.918 293.728C236.914 291.656 238.3 290.041 240.075 288.885C241.861 287.717 243.944 287.133 246.326 287.133C247.7 287.133 249.057 287.362 250.397 287.82C251.736 288.278 252.955 289.022 254.055 290.053C255.154 291.072 256.03 292.423 256.682 294.106C257.335 295.789 257.661 297.862 257.661 300.324V302.041H237.326V298.537H253.539C253.539 297.049 253.242 295.721 252.646 294.552C252.063 293.385 251.227 292.463 250.139 291.788C249.062 291.112 247.792 290.774 246.326 290.774C244.712 290.774 243.315 291.175 242.135 291.976C240.967 292.766 240.069 293.797 239.439 295.068C238.809 296.339 238.494 297.701 238.494 299.156V301.492C238.494 303.484 238.838 305.173 239.525 306.559C240.223 307.932 241.191 308.98 242.427 309.701C243.664 310.411 245.101 310.766 246.738 310.766C247.803 310.766 248.765 310.617 249.623 310.32C250.494 310.011 251.244 309.553 251.874 308.946C252.503 308.328 252.99 307.56 253.333 306.644L257.249 307.743C256.837 309.072 256.144 310.24 255.171 311.247C254.198 312.244 252.996 313.022 251.564 313.583C250.133 314.133 248.525 314.408 246.738 314.408ZM263.827 313.858V287.476H267.743V291.461H268.018C268.498 290.156 269.369 289.097 270.628 288.284C271.888 287.47 273.307 287.064 274.887 287.064C275.185 287.064 275.557 287.07 276.004 287.081C276.45 287.093 276.788 287.11 277.017 287.133V291.255C276.88 291.221 276.565 291.169 276.073 291.1C275.592 291.02 275.082 290.98 274.544 290.98C273.262 290.98 272.117 291.249 271.109 291.788C270.113 292.314 269.323 293.047 268.739 293.986C268.167 294.913 267.88 295.973 267.88 297.164V313.858H263.827ZM281.822 313.858V287.476H285.875V313.858H281.822ZM283.883 283.079C283.093 283.079 282.411 282.81 281.839 282.272C281.278 281.734 280.997 281.087 280.997 280.332C280.997 279.575 281.278 278.928 281.839 278.391C282.411 277.852 283.093 277.583 283.883 277.583C284.673 277.583 285.348 277.852 285.909 278.391C286.482 278.928 286.768 279.575 286.768 280.332C286.768 281.087 286.482 281.734 285.909 282.272C285.348 282.81 284.673 283.079 283.883 283.079ZM304.016 314.408C301.634 314.408 299.545 313.841 297.747 312.707C295.961 311.573 294.564 309.987 293.557 307.95C292.56 305.912 292.062 303.53 292.062 300.805C292.062 298.056 292.56 295.657 293.557 293.608C294.564 291.558 295.961 289.967 297.747 288.833C299.545 287.7 301.634 287.133 304.016 287.133C306.397 287.133 308.481 287.7 310.267 288.833C312.065 289.967 313.462 291.558 314.458 293.608C315.465 295.657 315.969 298.056 315.969 300.805C315.969 303.53 315.465 305.912 314.458 307.95C313.462 309.987 312.065 311.573 310.267 312.707C308.481 313.841 306.397 314.408 304.016 314.408ZM304.016 310.766C305.825 310.766 307.314 310.303 308.481 309.375C309.649 308.448 310.513 307.228 311.075 305.717C311.636 304.205 311.916 302.568 311.916 300.805C311.916 299.041 311.636 297.398 311.075 295.875C310.513 294.352 309.649 293.121 308.481 292.182C307.314 291.244 305.825 290.774 304.016 290.774C302.207 290.774 300.718 291.244 299.55 292.182C298.383 293.121 297.518 294.352 296.957 295.875C296.396 297.398 296.115 299.041 296.115 300.805C296.115 302.568 296.396 304.205 296.957 305.717C297.518 307.228 298.383 308.448 299.55 309.375C300.718 310.303 302.207 310.766 304.016 310.766ZM322.157 313.858V287.476H326.072V291.461H326.347C326.828 290.156 327.698 289.097 328.958 288.284C330.217 287.47 331.637 287.064 333.217 287.064C333.515 287.064 333.887 287.07 334.334 287.081C334.78 287.093 335.118 287.11 335.347 287.133V291.255C335.209 291.221 334.895 291.169 334.402 291.1C333.921 291.02 333.412 290.98 332.874 290.98C331.591 290.98 330.446 291.249 329.439 291.788C328.442 292.314 327.653 293.047 327.069 293.986C326.496 294.913 326.21 295.973 326.21 297.164V313.858H322.157ZM358.838 293.385L355.196 294.415C354.967 293.808 354.629 293.219 354.183 292.646C353.748 292.062 353.153 291.582 352.397 291.203C351.641 290.825 350.674 290.636 349.494 290.636C347.88 290.636 346.534 291.009 345.458 291.753C344.393 292.486 343.861 293.419 343.861 294.552C343.861 295.56 344.228 296.356 344.96 296.94C345.693 297.524 346.838 298.011 348.395 298.4L352.311 299.362C354.67 299.934 356.427 300.81 357.584 301.989C358.74 303.158 359.318 304.663 359.318 306.507C359.318 308.018 358.883 309.37 358.013 310.56C357.155 311.751 355.952 312.69 354.406 313.377C352.86 314.064 351.063 314.408 349.013 314.408C346.323 314.408 344.096 313.824 342.332 312.656C340.569 311.488 339.453 309.781 338.983 307.537L342.831 306.576C343.197 307.995 343.89 309.06 344.909 309.77C345.939 310.48 347.284 310.835 348.945 310.835C350.834 310.835 352.334 310.434 353.445 309.633C354.567 308.82 355.128 307.846 355.128 306.713C355.128 305.797 354.807 305.03 354.166 304.411C353.525 303.782 352.54 303.312 351.212 303.003L346.815 301.972C344.399 301.4 342.624 300.513 341.491 299.31C340.369 298.097 339.808 296.579 339.808 294.759C339.808 293.27 340.226 291.954 341.062 290.808C341.909 289.663 343.06 288.764 344.514 288.112C345.979 287.459 347.639 287.133 349.494 287.133C352.105 287.133 354.154 287.705 355.643 288.85C357.143 289.995 358.208 291.507 358.838 293.385ZM388.983 314.339C386.67 314.339 384.678 313.915 383.006 313.068C381.335 312.22 380.047 311.058 379.142 309.581C378.238 308.104 377.785 306.415 377.785 304.515C377.785 303.049 378.094 301.749 378.713 300.616C379.343 299.47 380.207 298.411 381.306 297.438C382.417 296.453 383.693 295.468 385.136 294.484L390.22 290.705C391.216 290.053 392.012 289.354 392.607 288.61C393.214 287.866 393.517 286.892 393.517 285.69C393.517 284.797 393.122 283.932 392.332 283.096C391.554 282.261 390.529 281.843 389.258 281.843C388.365 281.843 387.575 282.072 386.888 282.53C386.212 282.976 385.68 283.549 385.291 284.248C384.913 284.934 384.724 285.644 384.724 286.377C384.724 287.201 384.947 288.037 385.394 288.885C385.852 289.721 386.43 290.58 387.128 291.461C387.838 292.332 388.571 293.224 389.327 294.14L405.471 313.858H400.593L387.266 297.782C386.029 296.293 384.907 294.942 383.9 293.728C382.892 292.515 382.09 291.318 381.495 290.139C380.9 288.959 380.602 287.683 380.602 286.309C380.602 284.728 380.951 283.343 381.649 282.152C382.36 280.95 383.35 280.016 384.621 279.352C385.903 278.677 387.403 278.339 389.121 278.339C390.884 278.339 392.401 278.683 393.672 279.369C394.943 280.045 395.922 280.944 396.609 282.066C397.296 283.177 397.639 284.385 397.639 285.69C397.639 287.373 397.221 288.833 396.386 290.07C395.55 291.307 394.411 292.457 392.968 293.522L385.961 298.744C384.381 299.911 383.31 301.045 382.749 302.144C382.188 303.244 381.907 304.033 381.907 304.515C381.907 305.613 382.193 306.638 382.766 307.589C383.339 308.539 384.146 309.306 385.187 309.89C386.23 310.475 387.449 310.766 388.846 310.766C390.174 310.766 391.468 310.486 392.728 309.925C393.987 309.352 395.126 308.528 396.145 307.451C397.175 306.375 397.988 305.081 398.584 303.57C399.191 302.058 399.494 300.358 399.494 298.469H403.41C403.41 300.805 403.141 302.711 402.603 304.188C402.065 305.665 401.458 306.821 400.782 307.657C400.107 308.493 399.563 309.117 399.151 309.529C399.013 309.701 398.887 309.873 398.773 310.045C398.658 310.217 398.532 310.389 398.395 310.56C397.261 311.831 395.83 312.781 394.101 313.411C392.373 314.03 390.666 314.339 388.983 314.339ZM430.499 313.858L420.881 278.683H425.209L432.56 307.331H432.903L440.391 278.683H445.2L452.689 307.331H453.032L460.382 278.683H464.711L455.093 313.858H450.696L442.933 285.828H442.659L434.895 313.858H430.499ZM474.775 314.476C473.103 314.476 471.586 314.161 470.224 313.532C468.862 312.891 467.779 311.969 466.978 310.766C466.176 309.553 465.775 308.087 465.775 306.37C465.775 304.858 466.073 303.633 466.669 302.694C467.264 301.744 468.06 300.999 469.056 300.461C470.052 299.923 471.151 299.522 472.353 299.259C473.567 298.984 474.786 298.766 476.011 298.606C477.615 298.4 478.914 298.245 479.91 298.142C480.918 298.028 481.651 297.839 482.109 297.576C482.578 297.312 482.813 296.854 482.813 296.201V296.064C482.813 294.37 482.349 293.052 481.422 292.114C480.506 291.175 479.115 290.705 477.248 290.705C475.313 290.705 473.796 291.129 472.697 291.976C471.598 292.824 470.825 293.728 470.378 294.69L466.532 293.316C467.218 291.713 468.134 290.465 469.279 289.572C470.436 288.667 471.695 288.037 473.058 287.683C474.431 287.316 475.783 287.133 477.111 287.133C477.958 287.133 478.931 287.236 480.031 287.442C481.141 287.637 482.212 288.043 483.242 288.661C484.284 289.28 485.149 290.213 485.836 291.461C486.522 292.709 486.866 294.381 486.866 296.476V313.858H482.813V310.286H482.607C482.332 310.858 481.874 311.47 481.233 312.123C480.592 312.776 479.739 313.331 478.674 313.789C477.609 314.247 476.31 314.476 474.775 314.476ZM475.393 310.835C476.996 310.835 478.348 310.52 479.446 309.89C480.557 309.261 481.393 308.448 481.954 307.451C482.527 306.455 482.813 305.407 482.813 304.308V300.598C482.641 300.805 482.263 300.994 481.679 301.165C481.107 301.325 480.443 301.469 479.687 301.594C478.943 301.709 478.216 301.812 477.506 301.904C476.807 301.984 476.241 302.053 475.805 302.11C474.752 302.247 473.767 302.471 472.851 302.78C471.947 303.077 471.214 303.53 470.653 304.137C470.104 304.732 469.829 305.545 469.829 306.576C469.829 307.984 470.35 309.049 471.392 309.77C472.445 310.48 473.779 310.835 475.393 310.835ZM505.737 287.476V290.911H492.066V287.476H505.737ZM496.05 281.156H500.103V306.301C500.103 307.446 500.27 308.304 500.601 308.877C500.945 309.438 501.38 309.816 501.907 310.011C502.445 310.194 503.012 310.286 503.607 310.286C504.053 310.286 504.42 310.262 504.706 310.217C504.993 310.159 505.222 310.114 505.393 310.079L506.218 313.721C505.943 313.824 505.56 313.927 505.067 314.03C504.575 314.144 503.95 314.202 503.195 314.202C502.05 314.202 500.928 313.955 499.829 313.463C498.741 312.97 497.837 312.22 497.115 311.213C496.405 310.205 496.05 308.934 496.05 307.4V281.156ZM522.611 314.408C520.069 314.408 517.876 313.847 516.033 312.724C514.201 311.591 512.787 310.011 511.791 307.984C510.806 305.946 510.314 303.575 510.314 300.873C510.314 298.171 510.806 295.789 511.791 293.728C512.787 291.656 514.172 290.041 515.947 288.885C517.734 287.717 519.817 287.133 522.199 287.133C523.573 287.133 524.93 287.362 526.269 287.82C527.609 288.278 528.828 289.022 529.928 290.053C531.026 291.072 531.902 292.423 532.555 294.106C533.208 295.789 533.534 297.862 533.534 300.324V302.041H513.199V298.537H529.412C529.412 297.049 529.114 295.721 528.519 294.552C527.935 293.385 527.099 292.463 526.012 291.788C524.935 291.112 523.664 290.774 522.199 290.774C520.584 290.774 519.187 291.175 518.008 291.976C516.84 292.766 515.941 293.797 515.312 295.068C514.682 296.339 514.367 297.701 514.367 299.156V301.492C514.367 303.484 514.711 305.173 515.397 306.559C516.096 307.932 517.063 308.98 518.3 309.701C519.537 310.411 520.973 310.766 522.611 310.766C523.675 310.766 524.638 310.617 525.496 310.32C526.366 310.011 527.116 309.553 527.746 308.946C528.376 308.328 528.862 307.56 529.206 306.644L533.122 307.743C532.71 309.072 532.017 310.24 531.044 311.247C530.07 312.244 528.868 313.022 527.437 313.583C526.005 314.133 524.397 314.408 522.611 314.408ZM539.7 313.858V287.476H543.616V291.461H543.89C544.371 290.156 545.241 289.097 546.501 288.284C547.76 287.47 549.18 287.064 550.76 287.064C551.058 287.064 551.43 287.07 551.877 287.081C552.323 287.093 552.661 287.11 552.89 287.133V291.255C552.752 291.221 552.438 291.169 551.945 291.1C551.464 291.02 550.955 290.98 550.417 290.98C549.134 290.98 547.989 291.249 546.982 291.788C545.985 292.314 545.196 293.047 544.612 293.986C544.039 294.913 543.753 295.973 543.753 297.164V313.858H539.7ZM557.695 323.751V287.476H561.61V291.667H562.091C562.389 291.209 562.801 290.625 563.328 289.915C563.866 289.194 564.633 288.553 565.629 287.992C566.637 287.419 567.999 287.133 569.716 287.133C571.94 287.133 573.898 287.688 575.593 288.799C577.283 289.91 578.609 291.484 579.559 293.522C580.509 295.56 580.982 297.965 580.982 300.736C580.982 303.53 580.509 305.951 579.559 308.001C578.609 310.039 577.289 311.619 575.61 312.741C573.926 313.852 571.986 314.408 569.784 314.408C568.091 314.408 566.734 314.127 565.715 313.566C564.696 312.994 563.912 312.347 563.362 311.625C562.813 310.892 562.389 310.286 562.091 309.804H561.748V323.751H557.695ZM561.679 300.667C561.679 302.66 561.971 304.417 562.555 305.94C563.139 307.451 563.992 308.637 565.114 309.495C566.236 310.343 567.61 310.766 569.238 310.766C570.933 310.766 572.344 310.32 573.477 309.426C574.62 308.522 575.479 307.309 576.054 305.785C576.64 304.251 576.93 302.545 576.93 300.667C576.93 298.812 576.646 297.14 576.071 295.652C575.508 294.152 574.66 292.967 573.511 292.097C572.379 291.215 570.956 290.774 569.238 290.774C567.587 290.774 566.202 291.192 565.08 292.028C563.958 292.852 563.11 294.009 562.538 295.498C561.965 296.975 561.679 298.698 561.679 300.667ZM587.167 313.858V287.476H591.081V291.461H591.354C591.838 290.156 592.708 289.097 593.966 288.284C595.229 287.47 596.646 287.064 598.228 287.064C598.523 287.064 598.899 287.07 599.343 287.081C599.792 287.093 600.128 287.11 600.356 287.133V291.255C600.219 291.221 599.906 291.169 599.411 291.1C598.933 291.02 598.421 290.98 597.881 290.98C596.6 290.98 595.457 291.249 594.45 291.788C593.454 292.314 592.663 293.047 592.077 293.986C591.508 294.913 591.218 295.973 591.218 297.164V313.858H587.167ZM615.075 314.408C612.691 314.408 610.603 313.841 608.805 312.707C607.018 311.573 605.624 309.987 604.617 307.95C603.622 305.912 603.121 303.53 603.121 300.805C603.121 298.056 603.622 295.657 604.617 293.608C605.624 291.558 607.018 289.967 608.805 288.833C610.603 287.7 612.691 287.133 615.075 287.133C617.459 287.133 619.542 287.7 621.328 288.833C623.126 289.967 624.521 291.558 625.516 293.608C626.523 295.657 627.03 298.056 627.03 300.805C627.03 303.53 626.523 305.912 625.516 307.95C624.521 309.987 623.126 311.573 621.328 312.707C619.542 313.841 617.459 314.408 615.075 314.408ZM615.075 310.766C616.885 310.766 618.375 310.303 619.542 309.375C620.708 308.448 621.573 307.228 622.137 305.717C622.694 304.205 622.973 302.568 622.973 300.805C622.973 299.041 622.694 297.398 622.137 295.875C621.573 294.352 620.708 293.121 619.542 292.182C618.375 291.244 616.885 290.774 615.075 290.774C613.266 290.774 611.775 291.244 610.609 292.182C609.442 293.121 608.578 294.352 608.014 295.875C607.457 297.398 607.172 299.041 607.172 300.805C607.172 302.568 607.457 304.205 608.014 305.717C608.578 307.228 609.442 308.448 610.609 309.375C611.775 310.303 613.266 310.766 615.075 310.766ZM643.934 314.408C641.55 314.408 639.462 313.841 637.664 312.707C635.878 311.573 634.483 309.987 633.471 307.95C632.475 305.912 631.98 303.53 631.98 300.805C631.98 298.056 632.475 295.657 633.471 293.608C634.483 291.558 635.878 289.967 637.664 288.833C639.462 287.7 641.55 287.133 643.934 287.133C646.313 287.133 648.401 287.7 650.182 288.833C651.98 289.967 653.38 291.558 654.375 293.608C655.382 295.657 655.889 298.056 655.889 300.805C655.889 303.53 655.382 305.912 654.375 307.95C653.38 309.987 651.98 311.573 650.182 312.707C648.401 313.841 646.313 314.408 643.934 314.408ZM643.934 310.766C645.744 310.766 647.229 310.303 648.401 309.375C649.567 308.448 650.432 307.228 650.99 305.717C651.553 304.205 651.832 302.568 651.832 300.805C651.832 299.041 651.553 297.398 650.99 295.875C650.432 294.352 649.567 293.121 648.401 292.182C647.229 291.244 645.744 290.774 643.934 290.774C642.125 290.774 640.634 291.244 639.468 292.182C638.301 293.121 637.437 294.352 636.873 295.875C636.316 297.398 636.031 299.041 636.031 300.805C636.031 302.568 636.316 304.205 636.873 305.717C637.437 307.228 638.301 308.448 639.468 309.375C640.634 310.303 642.125 310.766 643.934 310.766ZM673.823 287.476V290.911H659.599V287.476H673.823ZM663.86 313.858V283.835C663.86 282.324 664.213 281.064 664.924 280.057C665.636 279.049 666.557 278.293 667.69 277.789C668.822 277.286 670.022 277.034 671.28 277.034C672.276 277.034 673.089 277.114 673.721 277.274C674.347 277.434 674.819 277.583 675.126 277.721L673.96 281.224C673.755 281.156 673.465 281.07 673.101 280.967C672.742 280.864 672.276 280.812 671.69 280.812C670.352 280.812 669.385 281.15 668.788 281.826C668.207 282.501 667.912 283.492 667.912 284.797V313.858H663.86ZM679.502 313.858V287.476H683.553V313.858H679.502ZM681.562 283.079C680.771 283.079 680.094 282.81 679.519 282.272C678.956 281.734 678.677 281.087 678.677 280.332C678.677 279.575 678.956 278.928 679.519 278.391C680.094 277.852 680.771 277.583 681.562 277.583C682.352 277.583 683.029 277.852 683.587 278.391C684.162 278.928 684.446 279.575 684.446 280.332C684.446 281.087 684.162 281.734 683.587 282.272C683.029 282.81 682.352 283.079 681.562 283.079ZM695.029 297.988V313.858H690.978V287.476H694.893V291.599H695.24C695.854 290.259 696.793 289.183 698.056 288.369C699.314 287.545 700.941 287.133 702.933 287.133C704.719 287.133 706.284 287.499 707.621 288.232C708.958 288.953 710.005 290.053 710.745 291.53C711.49 292.996 711.866 294.851 711.866 297.095V313.858H707.809V297.37C707.809 295.297 707.274 293.682 706.193 292.526C705.118 291.358 703.644 290.774 701.766 290.774C700.469 290.774 699.314 291.055 698.295 291.616C697.288 292.177 696.492 292.996 695.906 294.072C695.325 295.148 695.029 296.453 695.029 297.988ZM729.92 324.3C727.962 324.3 726.278 324.049 724.867 323.545C723.462 323.053 722.284 322.4 721.345 321.587C720.418 320.786 719.684 319.926 719.132 319.01L722.364 316.743C722.728 317.224 723.189 317.774 723.752 318.392C724.315 319.022 725.078 319.566 726.056 320.024C727.041 320.493 728.327 320.728 729.92 320.728C732.048 320.728 733.806 320.213 735.189 319.182C736.577 318.152 737.271 316.537 737.271 314.339V308.98H736.924C736.628 309.461 736.201 310.056 735.655 310.766C735.115 311.465 734.335 312.089 733.317 312.638C732.31 313.177 730.95 313.446 729.231 313.446C727.103 313.446 725.191 312.942 723.496 311.934C721.812 310.927 720.48 309.461 719.49 307.537C718.517 305.613 718.034 303.278 718.034 300.53C718.034 297.828 718.506 295.474 719.456 293.471C720.406 291.455 721.732 289.898 723.428 288.799C725.123 287.688 727.081 287.133 729.3 287.133C731.018 287.133 732.378 287.419 733.385 287.992C734.409 288.553 735.183 289.194 735.723 289.915C736.275 290.625 736.696 291.209 736.992 291.667H737.408V287.476H741.322V314.614C741.322 316.881 740.805 318.724 739.775 320.144C738.756 321.575 737.385 322.623 735.655 323.287C733.937 323.963 732.025 324.3 729.92 324.3ZM729.783 309.804C731.405 309.804 732.782 309.432 733.903 308.688C735.024 307.944 735.877 306.873 736.463 305.476C737.044 304.079 737.339 302.408 737.339 300.461C737.339 298.561 737.049 296.883 736.48 295.429C735.905 293.974 735.058 292.835 733.937 292.011C732.816 291.186 731.428 290.774 729.783 290.774C728.065 290.774 726.631 291.209 725.487 292.079C724.355 292.949 723.502 294.118 722.927 295.583C722.369 297.049 722.085 298.675 722.085 300.461C722.085 302.293 722.375 303.913 722.944 305.322C723.53 306.718 724.389 307.818 725.521 308.62C726.665 309.409 728.088 309.804 729.783 309.804Z" fill="currentColor"/>
</g>
<defs>
<clipPath id="clip0_2_2">
<rect width="899" height="404" fill="currentColor"/>
</clipPath>
</defs>
</svg>
