<svg width="32" height="33" viewBox="0 0 32 33" id="svg1417460536_1335">
<path d="M20.5457 6.96284L19.7463 16.5558C19.7027 17.0862 19.2258 17.4627 18.7346 17.4118C18.2183 17.3697 17.8356 16.9165 17.8786 16.4002L18.8029 5.30578C18.8486 4.75928 18.4172 4.29053 17.8687 4.29053H14.1308C13.5824 4.29053 13.151 4.75928 13.1966 5.30584L14.1213 16.4002C14.1643 16.9166 13.7816 17.3688 13.2653 17.4119C12.7752 17.4626 12.2974 17.0877 12.2536 16.5559L11.454 6.96303C10.8229 7.17965 10.2217 7.45246 9.63737 7.75059L10.3584 16.4003C10.4014 16.9167 10.0188 17.3689 9.50244 17.412C9.01231 17.4627 8.5345 17.0878 8.49075 16.556L7.84781 8.84321C4.23913 11.4235 1.875 15.6146 1.875 20.228C1.875 20.7453 1.45475 21.1655 0.9375 21.1655H31.0625C30.5452 21.1655 30.125 20.7453 30.125 20.228C30.125 15.6146 27.761 11.4237 24.1522 8.84309L23.5091 16.5558C23.4655 17.0862 22.9886 17.4627 22.4974 17.4118C21.9811 17.3688 21.5984 16.9157 21.6414 16.4002L22.3626 7.75046C21.7782 7.4524 21.1769 7.17947 20.5457 6.96284Z" fill="#E3EFD3"></path>
<path d="M0 23.978C0 24.3333 0.2005 24.6573 0.518188 24.8167C0.832188 24.9742 8.36631 28.6655 16 28.6655C23.6337 28.6655 31.1678 24.9741 31.4818 24.8167C31.7995 24.6573 32 24.3333 32 23.978C32 23.4603 31.5802 23.0405 31.0625 23.0405H0.9375C0.41975 23.0405 0 23.4603 0 23.978Z" fill="#E3EFD3"></path>
</svg>