<svg width="32" height="33" viewBox="0 0 32 33" id="svg1920271317_1934">
<path fill-rule="evenodd" clip-rule="evenodd" d="M29.7157 15.1001L27.449 12.4335C27.1619 12.0953 26.9878 11.6756 26.9512 11.2335C26.889 10.3446 26.7557 8.92235 26.6668 7.75791C26.6277 7.25312 26.4089 6.77908 26.0501 6.42188C25.6912 6.06469 25.2162 5.84802 24.7112 5.81124L21.2357 5.5268C20.7935 5.49025 20.3739 5.31618 20.0357 5.02902C19.3957 4.47791 18.2579 3.5268 17.369 2.76235C16.9854 2.43317 16.4967 2.2522 15.9912 2.2522C15.4858 2.2522 14.997 2.43317 14.6135 2.76235L11.9468 5.02902C11.6086 5.31618 11.189 5.49025 10.7468 5.5268L7.28902 5.81124C6.78264 5.84829 6.30647 6.06622 5.94745 6.42524C5.58843 6.78426 5.37051 7.26042 5.33346 7.7668C5.23568 8.94013 5.12013 10.4335 5.04902 11.2424C5.01247 11.6845 4.8384 12.1041 4.55124 12.4424C4.00902 13.0912 3.04902 14.2201 2.28457 15.109C1.95539 15.4926 1.77441 15.9813 1.77441 16.4868C1.77441 16.9923 1.95539 17.481 2.28457 17.8646L4.55124 20.5312C4.8384 20.8695 5.01247 21.2891 5.04902 21.7312C5.12013 22.6201 5.24457 24.0424 5.33346 25.2068C5.37457 25.71 5.59428 26.1819 5.95292 26.5373C6.31155 26.8927 6.78545 27.1081 7.28902 27.1446L10.7646 27.429C11.2067 27.4656 11.6264 27.6396 11.9646 27.9268L14.6312 30.1935C15.0148 30.5226 15.5036 30.7036 16.009 30.7036C16.5145 30.7036 17.0032 30.5226 17.3868 30.1935C18.2757 29.429 19.4046 28.4779 20.0535 27.9268C20.3917 27.6396 20.8113 27.4656 21.2535 27.429L24.7112 27.1446C25.2176 27.1075 25.6938 26.8896 26.0528 26.5306C26.4118 26.1716 26.6297 25.6954 26.6668 25.189C26.7646 24.0157 26.889 22.5224 26.9512 21.7135C26.9878 21.2713 27.1619 20.8517 27.449 20.5135C28.0001 19.8735 28.9512 18.7357 29.7157 17.8468C30.0425 17.4639 30.222 16.9769 30.222 16.4735C30.222 15.97 30.0425 15.4831 29.7157 15.1001ZM14.9423 20.6379L10.9957 16.6912L12.4979 15.189L14.9423 17.6246L19.5023 13.0646L21.0046 14.5668L14.9423 20.6379Z" fill="#E3EFD3"></path>
</svg>