<svg width="32" height="33" viewBox="0 0 32 33" fill="none" id="svg-1361091386_3374">
<path d="M25.4835 17.2379L13.5829 29.1385C13.4442 29.2772 13.2923 29.4093 13.1338 29.5282C13.3319 29.581 13.5366 29.6074 13.748 29.6074H24.9354C26.2893 29.6074 27.3921 28.5045 27.3921 27.1507V17.1454C26.8638 17.1124 26.3223 17.0463 25.7609 16.9407C25.6751 17.0397 25.5826 17.1388 25.4835 17.2379Z" fill="#E3EFD3"></path>
<path d="M30.5161 9.44485C30.4963 9.42503 30.4765 9.40522 30.4567 9.38541C29.3538 8.28252 27.749 7.26548 25.9262 6.506C25.596 6.36731 25.2592 6.24184 24.9224 6.12956V6.10975C24.9026 4.65024 23.7271 3.4747 22.2675 3.45489L15.1351 3.34922C14.1907 3.33601 13.2793 3.70584 12.6123 4.37286L0.718201 16.2801C-0.2394 17.2377 -0.2394 18.7963 0.718201 19.7539L8.62997 27.6657C9.58757 28.6233 11.1461 28.6233 12.1038 27.6657L24.011 15.7584C24.3544 15.415 24.612 15.0121 24.7903 14.5697C25.9857 14.9065 27.148 15.0848 28.1716 15.0782C30.7076 15.065 31.5464 13.9555 31.8237 13.2951C32.0945 12.6346 32.2926 11.2544 30.5161 9.44485ZM15.7823 16.2009C15.5049 16.3528 15.2209 16.5179 14.9369 16.6632C14.6662 16.8019 14.5737 16.7688 14.4746 16.4783C14.2699 15.8971 13.9397 15.4018 13.484 14.9923C13.3651 14.8867 13.2397 14.7876 13.0878 14.7282C12.5462 14.5168 12.0707 14.8669 12.1368 15.448C12.1698 15.7386 12.2623 16.016 12.3745 16.2867C12.566 16.7556 12.7708 17.2245 12.9095 17.7132C13.3585 19.2718 12.3679 20.804 10.8027 20.9559C10.2348 21.0087 9.69324 20.8898 9.19793 20.6059C8.97999 20.4804 8.81489 20.4936 8.64978 20.6785C8.48468 20.8568 8.29976 21.0219 8.12805 21.1936C7.97616 21.3455 7.81106 21.3521 7.65916 21.2002C7.46764 21.0219 7.28272 20.8304 7.09781 20.6455C6.93931 20.4804 6.95252 20.3087 7.11102 20.1502C7.2365 20.0247 7.36197 19.8926 7.48745 19.7671C7.76483 19.4832 7.76483 19.4633 7.54029 19.1529C7.2497 18.7567 6.99214 18.3406 6.83364 17.8717C6.70816 17.5085 6.74118 17.4161 7.07139 17.2311C7.31574 17.0924 7.5601 16.9538 7.81106 16.8217C8.10164 16.6698 8.18749 16.7028 8.28655 17.0132C8.45166 17.5415 8.72243 18.0104 9.05924 18.4463C9.27718 18.7303 9.54795 18.9416 9.87815 19.0737C10.4989 19.318 11.0669 18.8822 11.0009 18.2218C10.981 17.9972 10.915 17.7793 10.8292 17.5679C10.6178 17.0264 10.347 16.5047 10.2084 15.9301C9.97722 15.0055 10.0829 14.1602 10.8292 13.4998C11.6745 12.7535 12.6189 12.7073 13.6161 13.1696C14.0256 13.3611 14.0256 13.3677 14.3426 13.0507C14.4482 12.945 14.5539 12.8394 14.6662 12.7337C14.9105 12.5026 14.9898 12.5026 15.2341 12.7337C15.3068 12.8064 15.3794 12.879 15.4521 12.9516C15.954 13.4536 15.954 13.4536 15.4521 13.9621C15.0954 14.3187 15.0954 14.3187 15.3926 14.7282C15.6238 15.0452 15.8021 15.382 15.9408 15.7452C16.0134 15.9433 15.9738 16.0952 15.7823 16.2009ZM29.9085 12.5026C29.684 13.0375 27.2867 13.5064 23.6478 11.9874C22.5779 11.545 21.5873 10.9902 20.775 10.3958C20.7486 10.4289 20.7156 10.4619 20.6891 10.4949C19.8966 11.2874 18.6022 11.2874 17.8097 10.4949C17.0172 9.70241 17.0172 8.408 17.8097 7.6155C18.6022 6.823 19.8966 6.823 20.6891 7.6155C21.1646 8.091 21.3496 8.7382 21.2637 9.35239C22.043 9.90714 22.9808 10.4157 23.978 10.8317C24.3346 10.977 24.6714 11.1091 25.0017 11.2214L24.962 8.35516C25.0215 8.38158 25.0743 8.40139 25.1337 8.42781C26.6923 9.07501 28.0924 9.95997 28.9972 10.8647C29.0104 10.8779 29.0236 10.8912 29.0368 10.9044C29.8953 11.7695 29.9812 12.3243 29.9085 12.5026Z" fill="#E3EFD3"></path>
</svg>