<svg width="32" height="33" viewBox="0 0 32 33" fill="none" id="svg-540309313_1547">
<path fill-rule="evenodd" clip-rule="evenodd" d="M7.18306 21.8709H5.7944C4.78545 21.8709 3.81781 21.4702 3.10425 20.7566C2.3907 20.0431 1.98975 19.0752 1.98975 18.0662V16.2229C1.98975 15.2139 2.3907 14.2461 3.10425 13.5327C3.17518 13.4616 3.24849 13.3938 3.32443 13.329C4.94975 7.91221 9.97709 3.96045 15.9203 3.96045C21.8632 3.96045 26.8905 7.91221 28.5161 13.329C28.5918 13.3938 28.6653 13.4616 28.7363 13.5327C29.4496 14.2461 29.8505 15.2139 29.8505 16.2229V18.0662C29.8505 19.0752 29.4496 20.0431 28.7363 20.7566C28.6491 20.8436 28.5586 20.9259 28.4643 21.0033C28.4564 21.0637 28.443 21.1244 28.4234 21.1846C27.3626 24.4366 25.0677 27.1332 22.0924 28.7191C21.6077 28.9775 21.0047 28.7939 20.7463 28.3091C20.4879 27.8246 20.6715 27.2213 21.1563 26.963C23.2726 25.8351 24.9839 24.0455 26.0127 21.8709H24.6574C22.9681 24.9613 19.6872 27.0592 15.9203 27.0592C12.1531 27.0592 8.87213 24.9613 7.18306 21.8709ZM5.7944 12.4182H7.14437C8.82175 9.28893 12.1242 7.15854 15.9203 7.15854C19.7163 7.15854 23.0185 9.28893 24.6961 12.4182H26.0461C24.273 8.60045 20.4036 5.95066 15.9203 5.95066C11.4367 5.95066 7.56754 8.60045 5.7944 12.4182ZM8.27034 14.9023C8.06831 15.603 7.9599 16.3435 7.9599 17.1089C7.9599 21.5022 11.5267 25.069 15.9203 25.069C20.3136 25.069 23.8804 21.5022 23.8804 17.1089C23.8804 16.7409 23.8553 16.3786 23.8068 16.0237C18.656 16.2246 17.0157 14.9486 14.8924 13.4339C11.9406 14.7437 9.5981 14.9376 8.27034 14.9023Z" fill="#E3EFD3"></path>
</svg>